<mxfile host="app.diagrams.net" modified="2024-03-18T11:00:00.613Z" agent="Mozilla/5.0 (Windows NT 10.0; Win64; x64) AppleWebKit/537.36 (KHTML, like Gecko) Chrome/122.0.0.0 Safari/537.36" etag="HhIc_1yAQRm4m4K35H6u" version="24.0.2" type="device">
  <diagram name="Seite-1" id="TFbZQizQeo02EwTn3NUY">
    <mxGraphModel dx="989" dy="603" grid="1" gridSize="10" guides="1" tooltips="1" connect="1" arrows="1" fold="1" page="1" pageScale="1" pageWidth="827" pageHeight="1169" math="0" shadow="0">
      <root>
        <mxCell id="0" />
        <mxCell id="1" parent="0" />
        <mxCell id="tbsx57Qxi4tM-9-SHryC-9" style="edgeStyle=orthogonalEdgeStyle;rounded=0;orthogonalLoop=1;jettySize=auto;html=1;entryX=0;entryY=0.5;entryDx=0;entryDy=0;" edge="1" parent="1" source="tbsx57Qxi4tM-9-SHryC-1" target="tbsx57Qxi4tM-9-SHryC-2">
          <mxGeometry relative="1" as="geometry" />
        </mxCell>
        <mxCell id="tbsx57Qxi4tM-9-SHryC-1" value="User Interface (UI)" style="rounded=1;whiteSpace=wrap;html=1;fillColor=#dae8fc;strokeColor=#6c8ebf;" vertex="1" parent="1">
          <mxGeometry x="150" y="340" width="120" height="60" as="geometry" />
        </mxCell>
        <mxCell id="tbsx57Qxi4tM-9-SHryC-6" style="edgeStyle=orthogonalEdgeStyle;rounded=0;orthogonalLoop=1;jettySize=auto;html=1;entryX=0.5;entryY=0;entryDx=0;entryDy=0;" edge="1" parent="1" source="tbsx57Qxi4tM-9-SHryC-2" target="tbsx57Qxi4tM-9-SHryC-4">
          <mxGeometry relative="1" as="geometry" />
        </mxCell>
        <mxCell id="tbsx57Qxi4tM-9-SHryC-8" style="edgeStyle=orthogonalEdgeStyle;rounded=0;orthogonalLoop=1;jettySize=auto;html=1;entryX=0;entryY=0.5;entryDx=0;entryDy=0;" edge="1" parent="1" source="tbsx57Qxi4tM-9-SHryC-2" target="tbsx57Qxi4tM-9-SHryC-3">
          <mxGeometry relative="1" as="geometry" />
        </mxCell>
        <mxCell id="tbsx57Qxi4tM-9-SHryC-2" value="Blazor Server Web Application" style="rounded=1;whiteSpace=wrap;html=1;fillColor=#d5e8d4;strokeColor=#82b366;" vertex="1" parent="1">
          <mxGeometry x="340" y="340" width="120" height="60" as="geometry" />
        </mxCell>
        <mxCell id="tbsx57Qxi4tM-9-SHryC-3" value="Azure Entra ID" style="rounded=1;whiteSpace=wrap;html=1;fillColor=#e1d5e7;strokeColor=#9673a6;" vertex="1" parent="1">
          <mxGeometry x="520" y="340" width="120" height="60" as="geometry" />
        </mxCell>
        <mxCell id="tbsx57Qxi4tM-9-SHryC-7" style="edgeStyle=orthogonalEdgeStyle;rounded=0;orthogonalLoop=1;jettySize=auto;html=1;entryX=0.5;entryY=0;entryDx=0;entryDy=0;" edge="1" parent="1" source="tbsx57Qxi4tM-9-SHryC-4" target="tbsx57Qxi4tM-9-SHryC-5">
          <mxGeometry relative="1" as="geometry" />
        </mxCell>
        <mxCell id="tbsx57Qxi4tM-9-SHryC-4" value="Entity Framework Core" style="rounded=1;whiteSpace=wrap;html=1;fillColor=#ffe6cc;strokeColor=#d79b00;" vertex="1" parent="1">
          <mxGeometry x="340" y="440" width="120" height="60" as="geometry" />
        </mxCell>
        <mxCell id="tbsx57Qxi4tM-9-SHryC-5" value="MSSQL Datenbank" style="rounded=1;whiteSpace=wrap;html=1;fillColor=#f5f5f5;fontColor=#333333;strokeColor=#666666;" vertex="1" parent="1">
          <mxGeometry x="340" y="540" width="120" height="60" as="geometry" />
        </mxCell>
      </root>
    </mxGraphModel>
  </diagram>
</mxfile>
